<svg width="18" height="18" viewBox="0 0 18 18" fill="none" xmlns="http://www.w3.org/2000/svg">
<path d="M4.5 14.25H5.56875L12.9 6.91875L11.8313 5.85L4.5 13.1813V14.25ZM3 15.75V12.5625L12.9 2.68125C13.05 2.54375 13.2156 2.4375 13.3969 2.3625C13.5781 2.2875 13.7688 2.25 13.9688 2.25C14.1688 2.25 14.3625 2.2875 14.55 2.3625C14.7375 2.4375 14.9 2.55 15.0375 2.7L16.0688 3.75C16.2188 3.8875 16.3281 4.05 16.3969 4.2375C16.4656 4.425 16.5 4.6125 16.5 4.8C16.5 5 16.4656 5.19063 16.3969 5.37188C16.3281 5.55313 16.2188 5.71875 16.0688 5.86875L6.1875 15.75H3ZM12.3563 6.39375L11.8313 5.85L12.9 6.91875L12.3563 6.39375ZM4.875 9C4.875 7.85 4.475 6.875 3.675 6.075C2.875 5.275 1.9 4.875 0.75 4.875C1.9 4.875 2.875 4.475 3.675 3.675C4.475 2.875 4.875 1.9 4.875 0.75C4.875 1.9 5.275 2.875 6.075 3.675C6.875 4.475 7.85 4.875 9 4.875C7.85 4.875 6.875 5.275 6.075 6.075C5.275 6.875 4.875 7.85 4.875 9Z" fill="#AB6DA6"/>
</svg>
