<svg width="18" height="18" viewBox="0 0 18 18" fill="none" xmlns="http://www.w3.org/2000/svg">
<path d="M3.75 15.75C3.3375 15.75 2.98438 15.6031 2.69063 15.3094C2.39687 15.0156 2.25 14.6625 2.25 14.25V3.75C2.25 3.3375 2.39687 2.98438 2.69063 2.69063C2.98438 2.39688 3.3375 2.25 3.75 2.25H9.75V3.75H3.75V14.25H14.25V8.25H15.75V14.25C15.75 14.6625 15.6031 15.0156 15.3094 15.3094C15.0156 15.6031 14.6625 15.75 14.25 15.75H3.75ZM4.5 12.75L6.75 9.75L8.4375 12L10.6875 9L13.5 12.75H4.5ZM13.125 9C13.125 7.85 12.725 6.875 11.925 6.075C11.125 5.275 10.15 4.875 9 4.875C10.15 4.875 11.125 4.475 11.925 3.675C12.725 2.875 13.125 1.9 13.125 0.75C13.125 1.9 13.525 2.875 14.325 3.675C15.125 4.475 16.1 4.875 17.25 4.875C16.1 4.875 15.125 5.275 14.325 6.075C13.525 6.875 13.125 7.85 13.125 9Z" fill="#AB6DA6"/>
</svg>
