<svg width="18" height="18" viewBox="0 0 18 18" fill="none" xmlns="http://www.w3.org/2000/svg">
<path d="M3.75 15.75C3.3375 15.75 2.98438 15.6031 2.69063 15.3094C2.39687 15.0156 2.25 14.6625 2.25 14.25V3.75C2.25 3.3375 2.39687 2.98438 2.69063 2.69063C2.98438 2.39688 3.3375 2.25 3.75 2.25H9.01875C8.88125 2.475 8.75625 2.7125 8.64375 2.9625C8.53125 3.2125 8.44375 3.475 8.38125 3.75H3.75V6H8.38125C8.44375 6.275 8.52813 6.5375 8.63438 6.7875C8.74063 7.0375 8.86875 7.275 9.01875 7.5H7.125V14.25H10.875V9.20625C11.1125 9.33125 11.3563 9.43438 11.6063 9.51562C11.8563 9.59688 12.1125 9.65625 12.375 9.69375V14.25H14.25V9.61875C14.525 9.55625 14.7875 9.46875 15.0375 9.35625C15.2875 9.24375 15.525 9.11875 15.75 8.98125V14.25C15.75 14.6625 15.6031 15.0156 15.3094 15.3094C15.0156 15.6031 14.6625 15.75 14.25 15.75H3.75ZM3.75 14.25H5.625V7.5H3.75V14.25ZM3.75 15.75H5.625H2.25H3.75ZM13.125 9C13.125 7.85 12.725 6.875 11.925 6.075C11.125 5.275 10.15 4.875 9 4.875C10.15 4.875 11.125 4.475 11.925 3.675C12.725 2.875 13.125 1.9 13.125 0.75C13.125 1.9 13.525 2.875 14.325 3.675C15.125 4.475 16.1 4.875 17.25 4.875C16.1 4.875 15.125 5.275 14.325 6.075C13.525 6.875 13.125 7.85 13.125 9Z" fill="#AB6DA6"/>
</svg>
